# xmcd
#
# Track frame offsets: 
#        150
#        22075
#        36694
#        56966
#        83852
#        108746
#        134448
#        161562
#        185258
#        212081
#        237171
#        263872
#        283249
#        302450
#
# Disc length: 4281 seconds
#
# Revision: 0
# Processed by: cddbd v1.5.2PL0 Copyright (c) Steve Scherf et al.
# Submitted via: ExactAudioCopy v0.99pb4
#
DISCID=d410b70e
DTITLE=Various Artist - Italian Afro Funk
DYEAR=2006
DGENRE=Funk
TTITLE0=Claudio Diva and Mc Hair - Loopism ( Dj Fary and Dj Ebreo Mix)
TTITLE1=B.D.J. - Champ Elysees (Tribal Mix)
TTITLE2=Fax The Fax - African Vacation (Original Vrs.)
TTITLE3=Mixtechi - Kitara (Tribal Vrs.)
TTITLE4=Matata - Matata (Afro Mix)
TTITLE5=Helen - Zanzibar (Afro Side By R.Lodola)
TTITLE6=Daniele Losi - Tom Tom Beat (Special Afro Mix)
TTITLE7=Roberto Lodola - Marimba Do Mar (Fusion Vrs.)
TTITLE8=Tribal Mask - Theme From Kandala (Diva's Touch)
TTITLE9=Rhythm Factory - Africa Rhyhm (Sax Mix)
TTITLE10=Fatherfunkin - Soul Groove (Soul Mix)
TTITLE11=Magda - Magda (Soft Vrs.)
TTITLE12=Afrikanism - Tribalized (Original Mix)
TTITLE13=Dj Cocote - Oh Mah (Original Mix)
EXTD=
EXTT0=
EXTT1=
EXTT2=
EXTT3=
EXTT4=
EXTT5=
EXTT6=
EXTT7=
EXTT8=
EXTT9=
EXTT10=
EXTT11=
EXTT12=
EXTT13=
PLAYORDER=
